TITLE "switch off"
PERFORMER "tamatomika"
CATALOG 4988023044996
REM GENRE "Industrial"
REM DATE "2008"
REM DISCID 2704A404
FILE "switch off.flac" WAVE
  TRACK 01 AUDIO
    TITLE "万華鏡"
    ISRC JPH980800010
    INDEX 01 00:00:00
  TRACK 02 AUDIO
    TITLE "grape fruit"
    ISRC JPH900800040
    INDEX 00 02:30:40
    INDEX 01 02:32:05
  TRACK 03 AUDIO
    TITLE "その虹の先へ…"
    ISRC JPH900800050
    INDEX 00 07:09:68
    INDEX 01 07:12:33
